<?xml version="1.0" standalone="no"?>
<!DOCTYPE svg PUBLIC "-//W3C//DTD SVG 20010904//EN"
 "http://www.w3.org/TR/2001/REC-SVG-20010904/DTD/svg10.dtd">
<svg version="1.0" xmlns="http://www.w3.org/2000/svg"
 width="800.000000pt" height="800.000000pt" viewBox="0 0 800.000000 800.000000"
 preserveAspectRatio="xMidYMid meet">
<metadata>
Created by potrace 1.11, written by Peter Selinger 2001-2013
</metadata>
<g transform="translate(0.000000,800.000000) scale(0.100000,-0.100000)"
fill="#000000" stroke="none">
<path d="M6818 7476 c-10 -7 -18 -17 -18 -22 0 -5 -8 -17 -17 -26 -10 -9 -23
-23 -28 -30 -12 -16 -145 -178 -160 -194 -5 -7 -21 -26 -35 -44 -30 -38 -54
-66 -86 -102 -13 -16 -22 -28 -19 -28 3 0 -8 -13 -25 -30 -16 -16 -30 -32 -30
-35 0 -3 -8 -13 -17 -23 -10 -11 -34 -39 -53 -63 -19 -24 -45 -54 -57 -66 -12
-12 -24 -32 -28 -43 -4 -11 -10 -18 -14 -15 -5 2 -13 -7 -19 -20 -7 -14 -16
-25 -22 -25 -5 0 -10 -5 -10 -10 0 -6 -13 -25 -29 -43 -69 -75 -103 -117 -97
-117 4 0 -3 -10 -16 -22 -13 -13 -64 -72 -113 -133 -49 -60 -94 -115 -100
-121 -5 -6 -21 -26 -35 -44 -14 -18 -30 -38 -36 -45 -7 -6 -49 -72 -95 -146
-46 -74 -88 -137 -94 -141 -6 -5 -6 -8 0 -8 6 0 6 -3 0 -8 -6 -4 -37 -50 -70
-102 -33 -52 -64 -98 -70 -102 -5 -4 -7 -8 -3 -8 6 0 -67 -117 -92 -147 -5 -7
-10 -16 -10 -21 0 -5 -9 -19 -20 -32 -11 -13 -20 -29 -20 -37 0 -7 -4 -13 -10
-13 -5 0 -17 -15 -25 -32 -8 -18 -27 -52 -43 -75 -15 -24 -56 -89 -91 -145
-35 -57 -86 -136 -112 -176 -27 -40 -49 -75 -49 -77 0 -9 -75 -120 -83 -123
-4 -2 -5 -8 -1 -13 3 -5 0 -9 -5 -9 -6 0 -11 -5 -11 -10 0 -12 -51 -92 -65
-102 -5 -4 -6 -8 -2 -8 5 0 2 -7 -5 -15 -27 -30 -38 -45 -40 -52 -1 -9 -41
-76 -69 -115 -10 -15 -19 -31 -19 -36 0 -5 -11 -21 -25 -36 -13 -14 -21 -26
-18 -26 3 0 -7 -16 -21 -35 -15 -19 -24 -35 -21 -35 4 0 -7 -17 -24 -37 -16
-20 -28 -40 -25 -45 3 -4 0 -8 -5 -8 -6 0 -11 -7 -11 -15 0 -8 -4 -15 -10 -15
-5 0 -10 -7 -10 -15 0 -8 -4 -15 -10 -15 -5 0 -10 -5 -10 -12 0 -6 -11 -26
-26 -45 -14 -18 -23 -33 -20 -33 3 0 -4 -12 -17 -26 -12 -14 -22 -29 -22 -32
-1 -4 -14 -27 -30 -52 -16 -25 -28 -48 -27 -52 1 -5 -3 -8 -9 -8 -5 0 -15 -13
-20 -30 -6 -16 -14 -30 -18 -30 -7 0 -26 -35 -30 -52 0 -5 -9 -17 -18 -27 -33
-36 -42 -49 -37 -54 2 -2 -2 -10 -11 -17 -8 -7 -15 -19 -15 -26 0 -8 -4 -14
-9 -14 -5 0 -13 -10 -17 -22 -3 -12 -12 -28 -18 -35 -32 -35 -41 -48 -39 -53
2 -9 -31 -60 -39 -60 -4 0 -8 -6 -8 -13 0 -8 -9 -24 -20 -37 -11 -13 -20 -29
-20 -37 0 -7 -4 -13 -10 -13 -5 0 -10 -5 -10 -10 0 -6 -18 -37 -40 -69 -22
-32 -40 -61 -40 -64 0 -3 -13 -26 -30 -50 -16 -25 -30 -50 -30 -56 0 -6 -5
-11 -11 -11 -5 0 -17 -16 -25 -35 -8 -19 -19 -35 -24 -35 -6 0 -10 -7 -10 -15
0 -9 -9 -25 -20 -37 -11 -12 -20 -28 -20 -35 0 -7 -3 -13 -8 -13 -4 0 -16 -17
-27 -37 -11 -21 -23 -42 -27 -48 -4 -5 -48 -71 -97 -145 -49 -74 -101 -148
-115 -165 -15 -16 -43 -50 -64 -74 -50 -60 -142 -151 -204 -203 -28 -24 -60
-51 -70 -60 -10 -10 -18 -16 -18 -13 0 4 -21 -12 -54 -40 -20 -18 -101 -69
-105 -66 -2 2 -7 -1 -10 -6 -9 -13 -124 -78 -133 -75 -5 1 -8 -3 -8 -9 0 -5
-5 -7 -10 -4 -6 3 -10 2 -10 -3 0 -8 -35 -23 -43 -19 -2 1 -11 -6 -21 -16 -10
-9 -21 -15 -26 -12 -5 3 -11 1 -15 -5 -4 -6 -11 -8 -16 -5 -5 4 -9 1 -9 -4 0
-6 -8 -11 -18 -11 -10 0 -22 -4 -28 -9 -10 -10 -143 -54 -161 -54 -7 0 -13 -4
-13 -9 0 -4 -10 -8 -22 -8 -13 0 -43 -7 -67 -16 -24 -8 -50 -13 -58 -10 -7 3
-13 2 -13 -3 0 -7 -97 -35 -127 -36 -6 0 -15 -4 -19 -8 -4 -4 -18 -7 -31 -7
-12 0 -23 -4 -23 -9 0 -4 -11 -7 -25 -6 -14 2 -25 0 -25 -4 0 -4 -6 -8 -12 -8
-22 -1 -59 -10 -172 -42 -60 -16 -113 -28 -118 -25 -4 3 -8 0 -8 -5 0 -6 -3
-10 -7 -9 -5 1 -26 -4 -47 -10 -22 -6 -43 -9 -48 -6 -4 3 -8 1 -8 -4 0 -9 -84
-28 -102 -24 -5 1 -8 -3 -8 -8 0 -6 -6 -10 -12 -9 -21 4 -277 -74 -333 -101
-37 -18 -80 -33 -87 -32 -5 1 -8 -2 -8 -6 0 -5 -6 -9 -12 -9 -7 0 -46 -16 -85
-36 -40 -19 -73 -32 -73 -29 0 4 -4 2 -8 -3 -4 -6 -25 -19 -47 -30 -22 -11
-42 -22 -45 -25 -3 -3 -29 -18 -58 -33 -49 -27 -143 -85 -167 -104 -5 -4 -30
-21 -55 -38 -25 -16 -47 -32 -50 -35 -21 -22 -87 -64 -95 -62 -5 2 -7 0 -3 -4
5 -4 -8 -18 -27 -31 -19 -13 -35 -29 -35 -35 0 -6 -3 -9 -6 -6 -10 11 -185
-162 -178 -174 3 -5 0 -15 -6 -23 -10 -12 -10 -15 1 -15 9 0 10 -3 4 -8 -14
-10 -17 -32 -4 -32 6 0 9 -6 6 -14 -8 -21 54 -86 89 -93 41 -9 3345 -8 3424 1
36 4 72 9 80 11 8 2 28 6 43 9 49 8 137 36 193 61 30 13 54 22 54 19 0 -2 18
7 40 21 22 14 43 25 48 25 4 0 17 7 27 15 11 8 45 31 75 52 30 20 61 43 68 50
7 7 18 13 23 13 6 0 7 5 4 10 -3 6 -1 10 4 10 14 0 117 103 156 155 17 22 36
46 43 53 6 7 12 17 12 22 0 5 6 15 13 22 15 15 93 151 146 253 14 28 28 52 31
55 3 3 18 30 34 60 48 90 51 95 57 100 3 3 16 28 29 55 13 28 30 56 37 63 7 7
13 17 13 22 0 5 13 31 28 57 69 116 111 201 104 208 -4 5 -2 5 4 2 7 -4 17 6
25 26 7 17 21 43 31 56 10 13 15 27 12 32 -3 5 -1 9 5 9 6 0 13 11 17 25 3 14
10 25 15 25 5 0 9 6 9 14 0 7 7 19 15 26 9 7 13 15 11 18 -3 3 3 17 14 32 11
16 20 33 20 39 0 6 5 11 12 11 6 0 9 3 6 6 -4 3 16 44 43 91 27 46 49 86 49
88 0 1 25 47 56 101 31 55 57 105 57 112 0 6 4 12 8 12 12 0 40 56 32 64 -4 3
-1 6 6 6 6 0 16 12 21 26 6 15 20 40 31 55 11 16 17 29 14 29 -3 0 2 12 13 28
11 15 30 47 42 72 12 25 27 48 32 51 5 3 9 9 8 13 -1 4 19 42 44 86 25 43 46
82 46 85 0 4 12 22 26 41 15 19 22 34 18 34 -5 0 -4 4 1 8 6 4 24 30 40 57 15
28 32 53 37 56 6 3 9 9 9 13 -1 7 3 15 93 154 36 56 66 105 66 108 0 3 6 12
13 19 23 26 33 40 57 80 13 22 28 45 32 50 41 50 78 105 72 105 -4 0 2 9 13
19 11 11 35 42 54 70 18 28 36 51 40 51 4 0 10 11 13 25 4 14 11 23 16 20 5
-3 11 4 15 15 3 11 11 20 16 20 5 0 9 5 9 10 0 29 107 114 145 115 6 0 15 3
20 7 17 10 109 0 133 -15 6 -5 12 -5 12 -2 0 4 6 0 13 -7 8 -7 28 -24 45 -37
18 -13 32 -30 32 -37 0 -8 4 -14 10 -14 32 0 34 -70 34 -1860 l1 -1775 168 0
c93 0 171 4 174 8 3 5 7 495 9 1090 4 1103 5 1177 15 1177 3 0 5 26 4 58 0 31
3 62 6 67 4 6 10 33 14 60 4 28 9 64 12 80 3 17 6 39 7 50 2 11 6 27 9 35 7
18 21 112 19 123 -1 4 2 7 7 7 5 0 8 13 7 30 -1 16 1 31 5 32 5 2 10 17 13 33
3 17 10 45 15 63 5 17 7 32 3 32 -4 0 -2 4 4 8 6 4 16 27 23 52 6 25 13 50 15
55 2 6 6 24 11 40 4 17 12 35 17 41 5 7 11 22 13 34 13 66 184 456 207 471 5
3 9 8 9 10 -2 14 13 49 21 49 5 0 7 4 3 9 -3 5 -1 12 4 16 5 3 16 18 24 33 24
49 79 147 90 160 5 6 6 12 3 12 -4 0 2 13 13 29 12 16 21 31 21 34 0 3 15 38
34 79 26 58 63 153 71 188 1 3 5 13 8 23 16 41 21 60 31 112 1 6 4 15 7 20 7
11 22 80 23 105 1 8 5 21 9 28 5 6 5 17 2 22 -4 6 -1 17 5 25 10 12 10 15 -1
15 -10 0 -11 2 -2 8 7 4 13 33 15 65 2 31 6 57 9 57 3 0 5 102 4 228 -1 125
-3 227 -4 227 -4 0 -11 44 -15 94 -2 25 -5 46 -6 46 -1 0 -3 9 -5 20 -1 11 -6
34 -9 50 -4 17 -10 46 -13 65 -3 19 -9 37 -14 38 -5 2 -7 7 -5 11 5 8 -23 112
-49 181 -9 25 -18 50 -19 55 -1 6 -7 19 -13 30 -6 11 -11 22 -11 25 0 3 -6 19
-13 35 -7 17 -12 33 -11 37 1 3 -5 12 -13 18 -8 7 -15 17 -15 23 0 18 -33 87
-42 87 -4 0 -8 7 -8 15 0 9 -17 42 -37 73 -20 31 -36 60 -35 65 1 4 -3 7 -8 7
-6 0 -10 5 -10 11 0 9 -14 30 -84 124 -83 111 -323 365 -345 365 -6 0 -11 3
-11 8 0 4 -27 28 -61 52 -33 25 -66 50 -72 55 -21 18 -66 45 -73 44 -4 0 -10
3 -13 8 -6 8 -68 53 -73 53 -2 0 -11 -7 -20 -14z"/>
</g>
</svg>
